<?xml version="1.0" standalone="no"?>
<!DOCTYPE svg PUBLIC "-//W3C//DTD SVG 20010904//EN"
 "http://www.w3.org/TR/2001/REC-SVG-20010904/DTD/svg10.dtd">
<svg version="1.0" xmlns="http://www.w3.org/2000/svg"
 width="160.000000pt" height="144.000000pt" viewBox="0 0 160.000000 144.000000"
 preserveAspectRatio="xMidYMid meet">

<g transform="translate(0.000000,144.000000) scale(0.100000,-0.100000)"
fill="#000000" stroke="none">
<path d="M706 1284 c-401 -80 -427 -88 -459 -157 -10 -19 -17 -53 -17 -76 0
-27 -5 -43 -17 -51 -17 -10 -17 -10 -1 -20 15 -9 18 -26 18 -105 0 -79 -3 -96
-17 -104 -17 -9 -17 -10 -1 -16 16 -6 18 -21 18 -106 0 -81 -3 -99 -15 -99
-19 0 -19 -16 0 -24 9 -3 15 -18 15 -35 0 -43 20 -80 52 -97 l28 -15 0 -117 0
-117 26 42 c14 24 31 43 39 43 7 0 25 -19 39 -43 l25 -42 1 108 0 107 323 0
323 0 112 -106 c62 -58 112 -104 112 -101 0 3 -9 49 -20 102 -11 53 -20 99
-20 101 0 2 16 11 36 20 73 35 74 40 74 399 0 299 -1 322 -20 352 -10 17 -28
37 -39 43 -21 11 -21 10 -21 -305 0 -346 0 -348 -60 -398 -17 -15 -45 -29 -63
-32 -54 -9 -722 -63 -726 -59 -14 13 45 28 334 83 357 69 377 76 414 155 22
44 22 53 19 358 -3 279 -5 316 -21 339 -21 31 -58 49 -95 48 -15 -1 -193 -34
-396 -75z m-428 -291 c-4 -24 -24 -27 -24 -3 0 11 6 20 14 20 7 0 12 -8 10
-17z m0 -230 c-2 -9 -8 -18 -15 -20 -7 -3 -9 3 -6 16 6 25 26 28 21 4z m0
-226 c2 -9 -3 -17 -10 -17 -8 0 -14 9 -14 20 0 24 20 21 24 -3z"/>
</g>
</svg>
