<?xml version="1.0" encoding="UTF-8"?>
<!DOCTYPE svg PUBLIC "-//W3C//DTD SVG 1.1//EN" "http://www.w3.org/Graphics/SVG/1.1/DTD/svg11.dtd">
<svg xmlns="http://www.w3.org/2000/svg" version="1.1" width="160px" height="144px" style="shape-rendering:geometricPrecision; text-rendering:geometricPrecision; image-rendering:optimizeQuality; fill-rule:evenodd; clip-rule:evenodd" xmlns:xlink="http://www.w3.org/1999/xlink">
<g><path style="opacity:0.939" fill="#040302" d="M 102.5,4.5 C 107.959,4.10327 113.292,4.60327 118.5,6C 122.301,11.6328 126.635,16.7995 131.5,21.5C 136.329,24.1437 139.495,28.1437 141,33.5C 141.667,55.1667 141.667,76.8333 141,98.5C 138.973,103.864 135.473,108.031 130.5,111C 132.572,117.692 133.739,124.525 134,131.5C 132.04,133.899 129.874,134.065 127.5,132C 120.833,125.333 114.167,118.667 107.5,112C 87.5028,111.5 67.5028,111.333 47.5,111.5C 47.6664,119.507 47.4997,127.507 47,135.5C 45.2739,136.576 43.4406,136.743 41.5,136C 40.1258,133.417 38.6258,130.917 37,128.5C 35.6233,130.754 34.1233,132.92 32.5,135C 30.5594,135.743 28.7261,135.576 27,134.5C 26.8319,125.814 26.3319,117.148 25.5,108.5C 20.3515,104.87 17.8515,99.8698 18,93.5C 14.8396,90.9259 14.8396,88.2592 18,85.5C 18.6667,80.5 18.6667,75.5 18,70.5C 14.6667,68.1667 14.6667,65.8333 18,63.5C 18.6667,58.5 18.6667,53.5 18,48.5C 14.6667,45.8333 14.6667,43.1667 18,40.5C 17.5715,30.2577 22.0715,23.091 31.5,19C 55.3884,14.5791 79.0551,9.74578 102.5,4.5 Z"/></g>
<g><path style="opacity:1" fill="#fcfcfc" d="M 45.5,103.5 C 38.3742,103.363 38.0408,104.03 44.5,105.5C 48.9838,106.811 53.3171,106.811 57.5,105.5C 77.0091,103.608 96.6758,101.774 116.5,100C 123.218,98.9493 127.384,95.1159 129,88.5C 129.167,67.4921 129.667,46.4921 130.5,25.5C 134.677,27.498 137.177,30.8313 138,35.5C 138.667,55.8333 138.667,76.1667 138,96.5C 136.167,102.333 132.333,106.167 126.5,108C 128.099,114.823 129.766,121.656 131.5,128.5C 131.167,128.833 130.833,129.167 130.5,129.5C 123.348,122.848 116.348,116.015 109.5,109C 87.8359,108.5 66.1692,108.333 44.5,108.5C 44.6664,116.84 44.4997,125.173 44,133.5C 42.0657,129.241 39.7323,125.241 37,121.5C 34.417,124.997 32.0836,128.664 30,132.5C 29.6667,123.833 29.3333,115.167 29,106.5C 23.0167,102.864 20.5167,97.5308 21.5,90.5C 23.5,90.8333 25.5,91.1667 27.5,91.5C 27.7778,89.6536 27.1112,88.3202 25.5,87.5C 24.4763,88.8532 23.143,89.5198 21.5,89.5C 21.5,82.1667 21.5,74.8333 21.5,67.5C 23.143,67.4802 24.4763,68.1468 25.5,69.5C 27.4896,68.5373 27.8229,67.204 26.5,65.5C 24.9291,66.3094 23.2624,66.6427 21.5,66.5C 21.5,59.1667 21.5,51.8333 21.5,44.5C 23.143,44.4802 24.4763,45.1468 25.5,46.5C 27.1112,45.6798 27.7778,44.3464 27.5,42.5C 25.5,42.8333 23.5,43.1667 21.5,43.5C 20.1607,33.3448 24.1607,26.1781 33.5,22C 57.1397,17.2054 80.8063,12.5387 104.5,8C 110.694,6.28864 115.86,7.78864 120,12.5C 121.634,34.4361 121.967,56.4361 121,78.5C 118.651,86.1106 113.484,90.6106 105.5,92C 85.6229,96.4086 65.6229,100.242 45.5,103.5 Z"/></g>
<g><path style="opacity:1" fill="#bab4b1" d="M 45.5,103.5 C 49.0293,105.423 53.0293,106.089 57.5,105.5C 53.3171,106.811 48.9838,106.811 44.5,105.5C 38.0408,104.03 38.3742,103.363 45.5,103.5 Z"/></g>
</svg>
